# xmcd
#
# Track frame offsets:
#	150
#	20839
#	45548
#	66422
#	79407
#	100520
#	123466
#	143519
#	165689
#	187830
#	210943
#	228523
#
# Disc length: 3310 seconds
#
# Revision: 1
# Processed by: cddbd v1.5.1PL0 Copyright (c) Steve Scherf et al.
# Submitted via: CDex 1.50Beta5
#
DISCID=9b0cec0c
DTITLE=Souhern All Stars - Crystal Melody
DYEAR=1900
DGENRE=
TTITLE0=栞のテーマ
TTITLE1=Love Affair〜秘密のデート
TTITLE2=真夏の果実
TTITLE3=慕情
TTITLE4=希望の轍
TTITLE5=メロディー(Melody)
TTITLE6=海
TTITLE7=素敵な夢を叶えましょう
TTITLE8=涙のキッス
TTITLE9=Tsunami
TTITLE10=YaYa(あの時代を忘れない)
TTITLE11=いとしのエリー
EXTD=
EXTT0=
EXTT1=
EXTT2=
EXTT3=
EXTT4=
EXTT5=
EXTT6=
EXTT7=
EXTT8=
EXTT9=
EXTT10=
EXTT11=
PLAYORDER=
